# xmcd
# Track frame offsets:
# 150
# 14773
# 29272
# 48032
# 65008
# 86270
# 103974
# 121674
# 138178
# 156168
# 172851
# 196929
#
# Disc length: 2863 seconds
# Revision: 0
# Processed by: cddbd v1.5.2PL0 Copyright (c) Steve Scherf et al.
# Submitted via: VisiTrax 2.11.2.271 - For more info visit www.synapsa.com
#
DISCID=930b2d0c
DTITLE=Matt Macfarlane - Blue Swimmer
DYEAR=2004
DGENRE=Country
TTITLE0=It's Really Time
TTITLE1=Tears And Sulphur
TTITLE2=It's A Living Thing
TTITLE3=Blue Swimmer
TTITLE4=Little Heart
TTITLE5=Evernew
TTITLE6=While I'm Here
TTITLE7=Anna's Song
TTITLE8=We Fall
TTITLE9=Full Circle
TTITLE10=Open Wide
TTITLE11=Walk Away
EXTD=
EXTT0=
EXTT1=
EXTT2=
EXTT3=
EXTT4=
EXTT5=
EXTT6=
EXTT7=
EXTT8=
EXTT9=
EXTT10=
EXTT11=
PLAYORDER=
